<svg xmlns="http://www.w3.org/2000/svg" viewBox="0 0 100 100" width="200" height="200" role="img" aria-label="Artifactory icon">
    <!-- Background Circle -->
    <circle cx="50" cy="50" r="48" fill="#f5f5f5" stroke="#333" stroke-width="2" />

    <!-- Letter A -->
    <path
        d="M50 20 L35 70 H45 L50 55 L55 70 H65 L50 20 Z"
        fill="#333"
    />

    <!-- Left Gear -->
    <g transform="translate(20, 70) scale(0.5)">
        <circle cx="10" cy="10" r="8" fill="#333" />
        <circle cx="10" cy="10" r="5" fill="#f5f5f5" />
        <path
            d="M10 0 L12 3 L14 0 L16 3 L18 0 L20 3 L22 0 L20 -3 L18 0 L16 -3 L14 0 L12 -3 Z"
            fill="#333"
        />
    </g>

    <!-- Right Gear -->
    <g transform="translate(70, 70) scale(0.5)">
        <circle cx="10" cy="10" r="8" fill="#333" />
        <circle cx="10" cy="10" r="5" fill="#f5f5f5" />
        <path
            d="M10 0 L12 3 L14 0 L16 3 L18 0 L20 3 L22 0 L20 -3 L18 0 L16 -3 L14 0 L12 -3 Z"
            fill="#333"
        />
    </g>
</svg>